<svg width="1110" height="749" viewBox="0 0 1110 749" fill="none" xmlns="http://www.w3.org/2000/svg">
<path d="M558.5 13L664.588 72.5V191.5L558.5 251L452.412 191.5V72.5L558.5 13Z" stroke="#F8BE4B" stroke-width="22"/>
<path d="M433.5 235L539.588 294.5V413.5L433.5 473L327.412 413.5V294.5L433.5 235Z" stroke="#F8BE4B" stroke-width="22"/>
<path d="M681.5 235L787.588 294.5V413.5L681.5 473L575.412 413.5V294.5L681.5 235Z" stroke="#F8BE4B" stroke-width="22"/>
<path d="M558.5 162L664.588 221.5V340.5L558.5 400L452.412 340.5V221.5L558.5 162Z" stroke="#F8BE4B" stroke-width="12"/>
<path d="M4.172 540.7H112.495V549.491H56.62V588.082H84.036V597.022H56.62V636.06H112.495V645H4.172V540.7ZM202.673 635.315C210.123 635.315 216.033 632.285 220.404 626.226C224.774 620.167 227.605 612.816 228.897 604.174H238.135C236.744 614.902 233.218 624.041 227.556 631.59C224.377 635.762 220.751 638.891 216.679 640.977C212.705 642.964 208.285 644.255 203.418 644.851C198.65 645.447 192.392 645.745 184.644 645.745C173.717 645.745 164.827 644.702 157.973 642.616C151.218 640.431 145.407 636.904 140.54 632.037C131.004 622.501 126.236 609.389 126.236 592.701C126.236 575.119 130.507 562.057 139.05 553.514C144.612 547.951 150.821 544.276 157.675 542.488C164.529 540.7 173.518 539.806 184.644 539.806C194.875 539.806 203.169 540.551 209.527 542.041C215.983 543.432 221.248 546.461 225.321 551.13C228.698 555.004 231.33 559.673 233.218 565.136C235.105 570.599 236.198 576.013 236.496 581.377H228.003C227.605 576.907 226.513 572.338 224.725 567.669C223.036 562.901 220.354 558.828 216.679 555.451C213.003 551.974 208.335 550.236 202.673 550.236C197.309 550.236 192.988 552.57 189.71 557.239C186.829 560.914 184.644 566.328 183.154 573.48C182.061 578.943 181.515 585.35 181.515 592.701C181.515 604.323 182.905 613.71 185.687 620.862C189.263 630.497 194.925 635.315 202.673 635.315ZM334.037 645.745C320.726 645.745 308.707 643.709 297.979 639.636C287.251 635.563 278.758 629.554 272.5 621.607C266.341 613.561 263.262 603.926 263.262 592.701C263.262 581.576 266.391 572.04 272.649 564.093C278.907 556.146 287.35 550.137 297.979 546.064C308.707 541.892 320.726 539.806 334.037 539.806C347.248 539.806 359.168 541.892 369.797 546.064C380.525 550.137 388.968 556.146 395.127 564.093C401.385 572.04 404.514 581.576 404.514 592.701C404.514 603.926 401.385 613.561 395.127 621.607C388.968 629.554 380.525 635.563 369.797 639.636C359.168 643.709 347.248 645.745 334.037 645.745ZM334.037 636.954C338.209 636.954 341.288 635.067 343.275 631.292C344.964 628.411 346.106 623.296 346.702 615.945C347 612.071 347.149 604.323 347.149 592.701C347.149 580.98 346.901 572.685 346.404 567.818C346.106 561.858 345.013 557.338 343.126 554.259C341.139 550.484 338.11 548.597 334.037 548.597C329.865 548.597 326.736 550.484 324.65 554.259C322.961 557.239 321.869 561.759 321.372 567.818C320.975 572.983 320.776 581.278 320.776 592.701C320.776 605.614 320.925 613.362 321.223 615.945C321.62 622.799 322.713 627.915 324.501 631.292C326.587 635.067 329.766 636.954 334.037 636.954ZM429.73 540.7H482.029V636.06H538.649V645H429.73V540.7ZM612.504 645.745C599.193 645.745 587.174 643.709 576.446 639.636C565.718 635.563 557.225 629.554 550.967 621.607C544.808 613.561 541.729 603.926 541.729 592.701C541.729 581.576 544.858 572.04 551.116 564.093C557.374 556.146 565.817 550.137 576.446 546.064C587.174 541.892 599.193 539.806 612.504 539.806C625.715 539.806 637.635 541.892 648.264 546.064C658.992 550.137 667.435 556.146 673.594 564.093C679.852 572.04 682.981 581.576 682.981 592.701C682.981 603.926 679.852 613.561 673.594 621.607C667.435 629.554 658.992 635.563 648.264 639.636C637.635 643.709 625.715 645.745 612.504 645.745ZM612.504 636.954C616.676 636.954 619.755 635.067 621.742 631.292C623.431 628.411 624.573 623.296 625.169 615.945C625.467 612.071 625.616 604.323 625.616 592.701C625.616 580.98 625.368 572.685 624.871 567.818C624.573 561.858 623.48 557.338 621.593 554.259C619.606 550.484 616.577 548.597 612.504 548.597C608.332 548.597 605.203 550.484 603.117 554.259C601.428 557.239 600.336 561.759 599.839 567.818C599.442 572.983 599.243 581.278 599.243 592.701C599.243 605.614 599.392 613.362 599.69 615.945C600.087 622.799 601.18 627.915 602.968 631.292C605.054 635.067 608.233 636.954 612.504 636.954ZM783.033 635.315C790.483 635.315 796.394 632.285 800.764 626.226C805.135 620.167 807.966 612.816 809.257 604.174H818.495C817.105 614.902 813.578 624.041 807.916 631.59C804.738 635.762 801.112 638.891 797.039 640.977C793.066 642.964 788.646 644.255 783.778 644.851C779.01 645.447 772.752 645.745 765.004 645.745C754.078 645.745 745.187 644.702 738.333 642.616C731.579 640.431 725.768 636.904 720.9 632.037C711.364 622.501 706.596 609.389 706.596 592.701C706.596 575.119 710.868 562.057 719.41 553.514C724.973 547.951 731.181 544.276 738.035 542.488C744.889 540.7 753.879 539.806 765.004 539.806C775.236 539.806 783.53 540.551 789.887 542.041C796.344 543.432 801.609 546.461 805.681 551.13C809.059 555.004 811.691 559.673 813.578 565.136C815.466 570.599 816.558 576.013 816.856 581.377H808.363C807.966 576.907 806.873 572.338 805.085 567.669C803.397 562.901 800.715 558.828 797.039 555.451C793.364 551.974 788.695 550.236 783.033 550.236C777.669 550.236 773.348 552.57 770.07 557.239C767.19 560.914 765.004 566.328 763.514 573.48C762.422 578.943 761.875 585.35 761.875 592.701C761.875 604.323 763.266 613.71 766.047 620.862C769.623 630.497 775.285 635.315 783.033 635.315ZM843.647 540.7H895.946V645H843.647V540.7ZM895.946 592.701L920.382 540.7H972.383L946.308 592.701L979.386 645H926.789L895.946 592.701ZM1074.65 578.099C1086.47 581.278 1095.31 585.499 1101.17 590.764C1107.03 595.929 1109.96 602.684 1109.96 611.028C1109.96 617.683 1107.88 623.643 1103.7 628.908C1099.53 634.173 1093.37 638.295 1085.23 641.275C1077.18 644.255 1067.4 645.745 1055.87 645.745C1042.27 645.745 1030.25 644.007 1019.82 640.53C1009.49 636.954 1001.39 632.633 995.53 627.567L1000.45 620.862C1005.61 624.935 1012.12 628.411 1019.97 631.292C1027.81 634.173 1036.26 635.613 1045.3 635.613C1051.16 635.613 1055.58 634.769 1058.56 633.08C1061.64 631.391 1063.18 629.007 1063.18 625.928C1063.18 620.564 1057.86 616.392 1047.23 613.412L1027.86 607.75C1017.33 604.571 1009.19 600.151 1003.43 594.489C997.765 588.827 994.934 582.122 994.934 574.374C994.934 567.917 996.97 562.057 1001.04 556.792C1005.12 551.527 1011.03 547.405 1018.77 544.425C1026.62 541.346 1036.01 539.806 1046.93 539.806C1057.36 539.806 1066.95 540.998 1075.69 543.382C1084.53 545.766 1091.73 548.647 1097.3 552.024L1092.38 558.878C1087.71 556.196 1082.1 553.911 1075.54 552.024C1069.09 550.137 1062.28 549.193 1055.13 549.193C1048.87 549.193 1044.05 550.186 1040.68 552.173C1037.4 554.06 1035.76 556.693 1035.76 560.07C1035.76 562.653 1037 564.937 1039.48 566.924C1041.97 568.811 1046.69 570.699 1053.64 572.586L1074.65 578.099Z" fill="#FFE598"/>
<path d="M300.799 720.941L305.486 722.377C304.451 727.201 302.635 730.805 300.037 733.188C297.459 735.551 294.314 736.732 290.604 736.732C287.342 736.732 284.549 735.941 282.225 734.359C279.92 732.758 278.025 730.199 276.541 726.684C275.076 723.168 274.344 719.018 274.344 714.232C274.344 709.506 275.076 705.512 276.541 702.25C278.025 698.969 280.027 696.498 282.547 694.838C285.066 693.158 287.879 692.318 290.984 692.318C294.383 692.318 297.303 693.383 299.744 695.512C302.186 697.621 303.895 700.727 304.871 704.828L300.301 706.146C298.738 700.17 295.604 697.182 290.896 697.182C288.553 697.182 286.521 697.787 284.803 698.998C283.084 700.189 281.707 702.055 280.672 704.594C279.656 707.133 279.148 710.346 279.148 714.232C279.148 720.111 280.184 724.525 282.254 727.475C284.324 730.404 287.078 731.869 290.516 731.869C293.055 731.869 295.242 730.971 297.078 729.174C298.934 727.357 300.174 724.613 300.799 720.941ZM314.287 736V693.051H329.902C333.164 693.051 335.566 693.451 337.109 694.252C338.672 695.053 339.951 696.391 340.947 698.266C341.943 700.121 342.441 702.279 342.441 704.74C342.441 707.982 341.592 710.609 339.893 712.621C338.213 714.633 335.762 715.912 332.539 716.459C333.848 717.24 334.844 718.031 335.527 718.832C336.914 720.473 338.135 722.299 339.189 724.311L345.342 736H339.482L334.795 727.064C332.979 723.568 331.602 721.215 330.664 720.004C329.746 718.793 328.848 717.982 327.969 717.572C327.109 717.143 325.898 716.928 324.336 716.928H318.945V736H314.287ZM318.945 712.006H328.965C331.152 712.006 332.812 711.742 333.945 711.215C335.078 710.688 335.977 709.857 336.641 708.725C337.305 707.592 337.637 706.273 337.637 704.77C337.637 702.602 337.002 700.902 335.732 699.672C334.463 698.422 332.578 697.797 330.078 697.797H318.945V712.006ZM352.912 736V693.051H378.371V698.119H357.57V711.273H377.053V716.312H357.57V730.932H379.191V736H352.912ZM384.77 736L398.305 693.051H403.314L417.729 736H412.396L408.295 722.992H393.588L389.721 736H384.77ZM394.936 718.363H406.859L403.197 706.469C402.064 702.816 401.234 699.848 400.707 697.562C400.258 700.316 399.623 703.051 398.803 705.766L394.936 718.363ZM429.84 736V698.119H418.238V693.051H446.158V698.119H434.498V736H429.84ZM453.963 736V693.051H479.422V698.119H458.621V711.273H478.104V716.312H458.621V730.932H480.242V736H453.963ZM512.609 736L503.264 693.051H508.039L513.4 721.205C513.967 724.096 514.465 727.025 514.895 729.994L516.477 722.055L523.186 693.051H528.811L533.85 714.789C535.08 720.082 535.998 725.15 536.604 729.994C537.053 727.201 537.629 724.086 538.332 720.648L543.869 693.051H548.557L538.889 736H534.406L526.965 703.275L525.852 698.236C525.52 700.111 525.178 701.791 524.826 703.275L517.355 736H512.609ZM556.742 736V693.051H561.4V736H556.742ZM581.598 736V698.119H569.996V693.051H597.916V698.119H586.256V736H581.598ZM605.604 736V693.051H610.262V710.688H628.572V693.051H633.23V736H628.572V715.756H610.262V736H605.604ZM667.062 736L657.717 693.051H662.492L667.854 721.205C668.42 724.096 668.918 727.025 669.348 729.994L670.93 722.055L677.639 693.051H683.264L688.303 714.789C689.533 720.082 690.451 725.15 691.057 729.994C691.506 727.201 692.082 724.086 692.785 720.648L698.322 693.051H703.01L693.342 736H688.859L681.418 703.275L680.305 698.236C679.973 700.111 679.631 701.791 679.279 703.275L671.809 736H667.062ZM704.633 736L718.168 693.051H723.178L737.592 736H732.26L728.158 722.992H713.451L709.584 736H704.633ZM714.799 718.363H726.723L723.061 706.469C721.928 702.816 721.098 699.848 720.57 697.562C720.121 700.316 719.486 703.051 718.666 705.766L714.799 718.363ZM742.73 722.201L747.125 721.732C747.359 724.096 747.887 725.941 748.707 727.27C749.547 728.578 750.738 729.633 752.281 730.434C753.824 731.234 755.562 731.635 757.496 731.635C760.27 731.635 762.418 730.961 763.941 729.613C765.484 728.246 766.256 726.479 766.256 724.311C766.256 723.041 765.973 721.938 765.406 721C764.859 720.043 764.02 719.262 762.887 718.656C761.773 718.051 759.352 717.201 755.621 716.107C752.301 715.131 749.938 714.145 748.531 713.148C747.125 712.152 746.031 710.893 745.25 709.369C744.469 707.826 744.078 706.088 744.078 704.154C744.078 700.678 745.201 697.836 747.447 695.629C749.693 693.422 752.721 692.318 756.529 692.318C759.146 692.318 761.432 692.836 763.385 693.871C765.357 694.906 766.881 696.391 767.955 698.324C769.049 700.258 769.635 702.533 769.713 705.15L765.23 705.561C764.996 702.768 764.156 700.697 762.711 699.35C761.285 698.002 759.273 697.328 756.676 697.328C754.039 697.328 752.027 697.924 750.641 699.115C749.254 700.287 748.561 701.811 748.561 703.686C748.561 705.424 749.068 706.771 750.084 707.729C751.1 708.686 753.385 709.652 756.939 710.629C760.416 711.586 762.857 712.416 764.264 713.119C766.412 714.213 768.033 715.658 769.127 717.455C770.221 719.232 770.768 721.361 770.768 723.842C770.768 726.303 770.191 728.549 769.039 730.58C767.887 732.592 766.314 734.125 764.322 735.18C762.35 736.234 759.967 736.762 757.174 736.762C752.818 736.762 749.342 735.453 746.744 732.836C744.166 730.219 742.828 726.674 742.73 722.201ZM789.148 736V698.119H777.547V693.051H805.467V698.119H793.807V736H789.148ZM813.271 736V693.051H838.73V698.119H817.93V711.273H837.412V716.312H817.93V730.932H839.551V736H813.271Z" fill="#FFE598"/>
</svg>
